<svg width="14" height="10" viewBox="0 0 14 10" fill="none" xmlns="http://www.w3.org/2000/svg">
<path fill-rule="evenodd" clip-rule="evenodd" d="M0 0.833333C0 0.373096 0.373096 0 0.833333 0H12.5C12.9602 0 13.3333 0.373096 13.3333 0.833333C13.3333 1.29357 12.9602 1.66667 12.5 1.66667H0.833333C0.373096 1.66667 0 1.29357 0 0.833333ZM0 5C0 4.53976 0.373096 4.16667 0.833333 4.16667H8.33333C8.79357 4.16667 9.16667 4.53976 9.16667 5C9.16667 5.46024 8.79357 5.83333 8.33333 5.83333H0.833333C0.373096 5.83333 0 5.46024 0 5ZM0.833333 8.33333C0.373096 8.33333 0 8.70643 0 9.16667C0 9.6269 0.373096 10 0.833333 10H12.5C12.9602 10 13.3333 9.6269 13.3333 9.16667C13.3333 8.70643 12.9602 8.33333 12.5 8.33333H0.833333Z" fill="#1C294D"/>
</svg>
