<svg width="18" height="18" viewBox="0 0 18 18" fill="none" xmlns="http://www.w3.org/2000/svg">
<path fill-rule="evenodd" clip-rule="evenodd" d="M0.918315 0.918064C1.25374 0.58265 1.79756 0.58265 2.13299 0.918064L5.06401 3.84901C5.30849 3.73722 5.57334 3.6625 5.85119 3.63168L8.70867 3.31468C9.48651 3.22839 10.2614 3.50027 10.8148 4.05365L16.5787 9.81743C17.585 10.8237 17.585 12.4551 16.5787 13.4613L13.4615 16.5785C12.4552 17.5847 10.8237 17.5847 9.81748 16.5785L3.828 10.5892C3.22596 9.98714 2.96018 9.12659 3.11789 8.28993L3.60319 5.71534C3.648 5.47764 3.72483 5.25214 3.82894 5.04325L0.918315 2.1327C0.582893 1.79729 0.582893 1.25348 0.918315 0.918064ZM6.03967 7.25393L5.2164 6.43069L4.80597 8.60811C4.7534 8.887 4.84199 9.17385 5.04267 9.37452L11.0322 15.3639C11.3676 15.6993 11.9114 15.6993 12.2468 15.3639L15.364 12.2467C15.6995 11.9113 15.6995 11.3675 15.364 11.0321L9.60013 5.26829C9.41566 5.08383 9.15736 4.9932 8.89808 5.02196L6.50273 5.2877L7.27452 6.05947C7.8896 5.88457 8.57865 6.03924 9.06291 6.52349C9.77445 7.23501 9.77445 8.38862 9.06291 9.10013C8.35137 9.81165 7.19774 9.81165 6.48621 9.10013C5.9867 8.60064 5.83785 7.88327 6.03967 7.25393Z" fill="#FF283D"/>
</svg>
