<svg width="17" height="17" viewBox="0 0 17 17" fill="none" xmlns="http://www.w3.org/2000/svg">
<path fill-rule="evenodd" clip-rule="evenodd" d="M8.01086e-05 6.25C8.01086e-05 9.70178 2.7983 12.5 6.25008 12.5C7.69311 12.5 9.02192 12.011 10.0798 11.1896C10.1197 11.2739 10.1744 11.3529 10.2442 11.4226L15.2442 16.4226C15.5696 16.748 16.0972 16.748 16.4227 16.4226C16.7481 16.0972 16.7481 15.5695 16.4227 15.2441L11.4227 10.2441C11.353 10.1744 11.274 10.1196 11.1896 10.0797C12.011 9.02184 12.5001 7.69303 12.5001 6.25C12.5001 2.79822 9.70186 0 6.25008 0C2.7983 0 8.01086e-05 2.79822 8.01086e-05 6.25ZM1.66675 6.25C1.66675 3.71869 3.71878 1.66667 6.25008 1.66667C8.78139 1.66667 10.8334 3.71869 10.8334 6.25C10.8334 8.78131 8.78139 10.8333 6.25008 10.8333C3.71878 10.8333 1.66675 8.78131 1.66675 6.25Z" fill="white"/>
</svg>
